<?xml version="1.0" encoding="UTF-8" standalone="no"?>
<!-- Uploaded to: SVG Repo, www.svgrepo.com, Generator: SVG Repo Mixer Tools -->

<svg
   fill="#000000"
   width="201.30849"
   height="201.3085"
   viewBox="0 0 6.0392545 6.0392547"
   id="triangle-ruler-pencil"
   data-name="Flat Color"
   class="icon flat-color"
   version="1.1"
   xmlns="http://www.w3.org/2000/svg"
   xmlns:svg="http://www.w3.org/2000/svg">
  <defs
     id="defs22115" />
  <g
     id="g32377"
     transform="matrix(2.0130847,0,0,2.0130847,-12.481125,-8.0559777)">
    <path
       id="primary"
       d="M 8.5595643,5.6685894 7.0332182,4.1422432 C 6.8931008,4.0039853 6.6835575,3.9636144 6.5021024,4.0399182 6.3201462,4.1146661 6.2009818,4.2914909 6.2,4.4881997 v 1.5263456 c 0,0.2691076 0.2181547,0.4872623 0.487262,0.4872623 H 8.2136082 C 8.4103168,6.5008259 8.5871415,6.3816606 8.6618894,6.1997049 8.7381931,6.01825 8.6978215,5.8087066 8.5595643,5.6685894 Z"
       style="mix-blend-mode:multiply;fill:#eb567b;fill-opacity:1;stroke-width:0.487262" />
    <path
       id="path29187"
       d="M 6.8404357,5.3350262 8.3667818,6.8613724 C 8.506899,6.9996303 8.7164425,7.0400016 8.8978976,6.9636967 9.0798538,6.8889495 9.1990182,6.7121246 9.2,6.5154159 V 4.9890702 C 9.2,4.7199627 8.9818453,4.501808 8.712738,4.501808 H 7.1863918 C 6.9896835,4.5027896 6.8128585,4.6219538 6.7381106,4.8039106 6.6618064,4.9853648 6.7021773,5.194909 6.8404357,5.3350262 Z"
       style="opacity:1;mix-blend-mode:multiply;fill:#40baf8;fill-opacity:0.8;stroke-width:0.487262" />
  </g>
</svg>
